<?xml version="1.0" encoding="UTF-8"?>
<svg width="171px" height="126px" viewBox="0 0 171 126" version="1.1" xmlns="http://www.w3.org/2000/svg" xmlns:xlink="http://www.w3.org/1999/xlink">
    <!-- Generator: Sketch 52.6 (67491) - http://www.bohemiancoding.com/sketch -->
    <title>petr-lechner-logo-white</title>
    <desc>Created with Sketch.</desc>
    <g id="Page-1" stroke="none" stroke-width="1" fill="none" fill-rule="evenodd">
        <g id="Artboard" transform="translate(-913.000000, -451.000000)" fill="#FFFFFF">
            <g id="petr-lechner-logo-white" transform="translate(913.000000, 451.000000)">
                <path d="M1.542,33 L1.542,0.892 L16.722,0.892 C18.2246742,0.892 19.573994,1.14499747 20.77,1.651 C21.966006,2.15700253 22.9856624,2.85466222 23.829,3.744 C24.6723375,4.63333778 25.3239977,5.71432697 25.784,6.987 C26.2440023,8.25967303 26.474,9.64732582 26.474,11.15 C26.474,12.683341 26.2440023,14.0786604 25.784,15.336 C25.3239977,16.5933396 24.6723375,17.6666622 23.829,18.556 C22.9856624,19.4453378 21.966006,20.1429975 20.77,20.649 C19.573994,21.1550025 18.2246742,21.408 16.722,21.408 L8.534,21.408 L8.534,33 L1.542,33 Z M8.534,15.336 L15.894,15.336 C16.9366719,15.336 17.756997,15.0676693 18.355,14.531 C18.953003,13.9943306 19.252,13.2046719 19.252,12.162 L19.252,10.138 C19.252,9.09532812 18.953003,8.30566935 18.355,7.769 C17.756997,7.23233065 16.9366719,6.964 15.894,6.964 L8.534,6.964 L8.534,15.336 Z M41.424,33.552 C39.5839908,33.552 37.9433405,33.253003 36.502,32.655 C35.0606595,32.056997 33.8416716,31.2136721 32.845,30.125 C31.8483283,29.0363279 31.0970025,27.7100078 30.591,26.146 C30.0849975,24.5819922 29.832,22.8340097 29.832,20.902 C29.832,19.0006572 30.0773309,17.2756744 30.568,15.727 C31.0586691,14.1783256 31.7869952,12.8520055 32.753,11.748 C33.7190048,10.6439945 34.9073263,9.79300299 36.318,9.195 C37.7286737,8.59699701 39.3386576,8.298 41.148,8.298 C43.1413433,8.298 44.8509929,8.63532996 46.277,9.31 C47.7030071,9.98467004 48.8683288,10.8893277 49.773,12.024 C50.6776712,13.1586723 51.3369979,14.4696592 51.751,15.957 C52.1650021,17.4443408 52.372,19.0006585 52.372,20.626 L52.372,22.65 L36.87,22.65 L36.87,23.018 C36.87,24.6126746 37.299329,25.877662 38.158,26.813 C39.016671,27.748338 40.3659908,28.216 42.206,28.216 C43.6166737,28.216 44.7666622,27.9323362 45.656,27.365 C46.5453378,26.7976638 47.3733295,26.1153373 48.14,25.318 L51.544,29.55 C50.4706613,30.8073396 49.0676753,31.7886631 47.335,32.494 C45.6023247,33.1993369 43.632011,33.552 41.424,33.552 Z M41.286,13.312 C39.9059931,13.312 38.8250039,13.7643288 38.043,14.669 C37.2609961,15.5736712 36.87,16.7773258 36.87,18.28 L36.87,18.648 L45.334,18.648 L45.334,18.234 C45.334,16.7619926 45.0043366,15.5736712 44.345,14.669 C43.6856634,13.7643288 42.6660069,13.312 41.286,13.312 Z M65.666,33 C63.3046549,33 61.5183394,32.402006 60.307,31.206 C59.0956606,30.009994 58.49,28.2620115 58.49,25.962 L58.49,14.14 L55.086,14.14 L55.086,8.85 L56.788,8.85 C57.7080046,8.85 58.336665,8.62766889 58.674,8.183 C59.011335,7.73833111 59.18,7.10200414 59.18,6.274 L59.18,2.318 L65.298,2.318 L65.298,8.85 L70.082,8.85 L70.082,14.14 L65.298,14.14 L65.298,27.71 L69.714,27.71 L69.714,33 L65.666,33 Z M75.542,33.042 L75.542,8.892 L82.35,8.892 L82.35,14.136 L82.58,14.136 C82.7026673,13.46133 82.9173318,12.8096698 83.224,12.181 C83.5306682,11.5523302 83.9369975,10.9926691 84.443,10.502 C84.9490025,10.0113309 85.5546631,9.62033479 86.26,9.329 C86.9653369,9.03766521 87.7933286,8.892 88.744,8.892 L89.94,8.892 L89.94,15.24 L88.238,15.24 C86.2446567,15.24 84.7650048,15.5006641 83.799,16.022 C82.8329952,16.5433359 82.35,17.5093263 82.35,18.92 L82.35,33.042 L75.542,33.042 Z" id="Petr"></path>
                <path d="M1.542,77 L1.542,44.892 L8.534,44.892 L8.534,70.79 L20.77,70.79 L20.77,77 L1.542,77 Z M35.628,77.552 C33.7879908,77.552 32.1473405,77.253003 30.706,76.655 C29.2646595,76.056997 28.0456716,75.2136721 27.049,74.125 C26.0523283,73.0363279 25.3010025,71.7100078 24.795,70.146 C24.2889975,68.5819922 24.036,66.8340097 24.036,64.902 C24.036,63.0006572 24.2813309,61.2756744 24.772,59.727 C25.2626691,58.1783256 25.9909952,56.8520055 26.957,55.748 C27.9230048,54.6439945 29.1113263,53.793003 30.522,53.195 C31.9326737,52.596997 33.5426576,52.298 35.352,52.298 C37.3453433,52.298 39.0549929,52.63533 40.481,53.31 C41.9070071,53.98467 43.0723288,54.8893277 43.977,56.024 C44.8816712,57.1586723 45.5409979,58.4696592 45.955,59.957 C46.3690021,61.4443408 46.576,63.0006585 46.576,64.626 L46.576,66.65 L31.074,66.65 L31.074,67.018 C31.074,68.6126746 31.503329,69.877662 32.362,70.813 C33.220671,71.748338 34.5699908,72.216 36.41,72.216 C37.8206737,72.216 38.9706622,71.9323362 39.86,71.365 C40.7493378,70.7976638 41.5773295,70.1153373 42.344,69.318 L45.748,73.55 C44.6746613,74.8073396 43.2716753,75.7886631 41.539,76.494 C39.8063247,77.1993369 37.836011,77.552 35.628,77.552 Z M35.49,57.312 C34.1099931,57.312 33.0290039,57.7643288 32.247,58.669 C31.4649961,59.5736712 31.074,60.7773258 31.074,62.28 L31.074,62.648 L39.538,62.648 L39.538,62.234 C39.538,60.7619926 39.2083366,59.5736712 38.549,58.669 C37.8896634,57.7643288 36.8700069,57.312 35.49,57.312 Z M61.158,77.552 C59.3486576,77.552 57.7386737,77.253003 56.328,76.655 C54.9173263,76.056997 53.7366714,75.2136721 52.786,74.125 C51.8353286,73.0363279 51.1146691,71.7100078 50.624,70.146 C50.1333309,68.5819922 49.888,66.8340097 49.888,64.902 C49.888,62.9699903 50.1333309,61.2296744 50.624,59.681 C51.1146691,58.1323256 51.8353286,56.8060055 52.786,55.702 C53.7366714,54.5979945 54.9173263,53.7546696 56.328,53.172 C57.7386737,52.5893304 59.3486576,52.298 61.158,52.298 C63.6113456,52.298 65.6583251,52.8499945 67.299,53.954 C68.9396749,55.0580055 70.1126631,56.6066567 70.818,58.6 L65.298,60.992 C65.0833323,60.0719954 64.63867,59.2900032 63.964,58.646 C63.28933,58.0019968 62.354006,57.68 61.158,57.68 C59.7779931,57.68 58.7353369,58.1323288 58.03,59.037 C57.3246631,59.9416712 56.972,61.160659 56.972,62.694 L56.972,67.202 C56.972,68.735341 57.3246631,69.9543288 58.03,70.859 C58.7353369,71.7636712 59.7779931,72.216 61.158,72.216 C62.5073401,72.216 63.5116634,71.8556703 64.171,71.135 C64.8303366,70.4143297 65.328665,69.5633382 65.666,68.582 L70.956,70.882 C70.1586627,73.1820115 68.9243417,74.8686613 67.253,75.942 C65.5816583,77.0153387 63.550012,77.552 61.158,77.552 Z M75.542,42.96 L82.35,42.96 L82.35,56.944 L82.626,56.944 C83.0553355,55.6866604 83.8066613,54.5980046 84.88,53.678 C85.9533387,52.7579954 87.4406572,52.298 89.342,52.298 C91.8260124,52.298 93.704327,53.1259917 94.977,54.782 C96.249673,56.4380083 96.886,58.799318 96.886,61.866 L96.886,77 L90.078,77 L90.078,62.418 C90.078,60.8539922 89.8326691,59.6963371 89.342,58.945 C88.8513309,58.1936629 87.9773396,57.818 86.72,57.818 C86.1679972,57.818 85.6313359,57.8869993 85.11,58.025 C84.5886641,58.1630007 84.1210021,58.3853318 83.707,58.692 C83.2929979,58.9986682 82.9633346,59.3743311 82.718,59.819 C82.4726654,60.2636689 82.35,60.7773304 82.35,61.36 L82.35,77 L75.542,77 L75.542,42.96 Z M102.604,77 L102.604,52.85 L109.412,52.85 L109.412,56.944 L109.688,56.944 C110.117335,55.6866604 110.868661,54.5980046 111.942,53.678 C113.015339,52.7579954 114.502657,52.298 116.404,52.298 C118.888012,52.298 120.766327,53.1259917 122.039,54.782 C123.311673,56.4380083 123.948,58.799318 123.948,61.866 L123.948,77 L117.14,77 L117.14,62.418 C117.14,60.8539922 116.894669,59.6963371 116.404,58.945 C115.913331,58.1936629 115.03934,57.818 113.782,57.818 C113.229997,57.818 112.693336,57.8869993 112.172,58.025 C111.650664,58.1630007 111.183002,58.3853318 110.769,58.692 C110.354998,58.9986682 110.025335,59.3743311 109.78,59.819 C109.534665,60.2636689 109.412,60.7773304 109.412,61.36 L109.412,77 L102.604,77 Z M140.094,77.552 C138.253991,77.552 136.613341,77.253003 135.172,76.655 C133.730659,76.056997 132.511672,75.2136721 131.515,74.125 C130.518328,73.0363279 129.767003,71.7100078 129.261,70.146 C128.754997,68.5819922 128.502,66.8340097 128.502,64.902 C128.502,63.0006572 128.747331,61.2756744 129.238,59.727 C129.728669,58.1783256 130.456995,56.8520055 131.423,55.748 C132.389005,54.6439945 133.577326,53.793003 134.988,53.195 C136.398674,52.596997 138.008658,52.298 139.818,52.298 C141.811343,52.298 143.520993,52.63533 144.947,53.31 C146.373007,53.98467 147.538329,54.8893277 148.443,56.024 C149.347671,57.1586723 150.006998,58.4696592 150.421,59.957 C150.835002,61.4443408 151.042,63.0006585 151.042,64.626 L151.042,66.65 L135.54,66.65 L135.54,67.018 C135.54,68.6126746 135.969329,69.877662 136.828,70.813 C137.686671,71.748338 139.035991,72.216 140.876,72.216 C142.286674,72.216 143.436662,71.9323362 144.326,71.365 C145.215338,70.7976638 146.043329,70.1153373 146.81,69.318 L150.214,73.55 C149.140661,74.8073396 147.737675,75.7886631 146.005,76.494 C144.272325,77.1993369 142.302011,77.552 140.094,77.552 Z M139.956,57.312 C138.575993,57.312 137.495004,57.7643288 136.713,58.669 C135.930996,59.5736712 135.54,60.7773258 135.54,62.28 L135.54,62.648 L144.004,62.648 L144.004,62.234 C144.004,60.7619926 143.674337,59.5736712 143.015,58.669 C142.355663,57.7643288 141.336007,57.312 139.956,57.312 Z M155.872,77 L155.872,52.85 L162.68,52.85 L162.68,58.094 L162.91,58.094 C163.032667,57.41933 163.247332,56.7676698 163.554,56.139 C163.860668,55.5103302 164.266997,54.9506691 164.773,54.46 C165.279003,53.9693309 165.884663,53.5783348 166.59,53.287 C167.295337,52.9956652 168.123329,52.85 169.074,52.85 L170.27,52.85 L170.27,59.198 L168.568,59.198 C166.574657,59.198 165.095005,59.4586641 164.129,59.98 C163.162995,60.5013359 162.68,61.4673263 162.68,62.878 L162.68,77 L155.872,77 Z" id="Lechner"></path>
                <polygon id="L" points="2 96.25 2 90 21.3 90 21.3 96.25"></polygon>
                <path d="M12.19,125 L10.58,120.262 L4.094,120.262 L2.484,125 L0.529,125 L6.141,108.946 L8.602,108.946 L14.214,125 L12.19,125 Z M7.383,110.74 L7.268,110.74 L4.554,118.56 L10.097,118.56 L7.383,110.74 Z M19.8681667,125 L17.9361667,125 L17.9361667,108.946 L24.3301667,108.946 C25.7408404,108.946 26.8409961,109.336996 27.6306667,110.119 C28.4203373,110.901004 28.8151667,112.027993 28.8151667,113.5 C28.8151667,114.680673 28.5430027,115.650496 27.9986667,116.4095 C27.4543306,117.168504 26.653172,117.670665 25.5951667,117.916 L29.2751667,125 L27.0901667,125 L23.6171667,118.1 L19.8681667,118.1 L19.8681667,125 Z M24.3301667,116.444 C25.0968372,116.444 25.6909979,116.244669 26.1126667,115.846 C26.5343354,115.447331 26.7451667,114.880004 26.7451667,114.144 L26.7451667,112.948 C26.7451667,112.211996 26.5343354,111.644669 26.1126667,111.246 C25.6909979,110.847331 25.0968372,110.648 24.3301667,110.648 L19.8681667,110.648 L19.8681667,116.444 L24.3301667,116.444 Z M39.1383333,125.276 C37.0989898,125.276 35.5120057,124.582174 34.3773333,123.1945 C33.242661,121.806826 32.6753333,119.76368 32.6753333,117.065 C32.6753333,114.36632 33.242661,112.292507 34.3773333,110.8435 C35.5120057,109.394493 37.0989898,108.67 39.1383333,108.67 C40.4876734,108.67 41.6184955,108.976664 42.5308333,109.59 C43.4431712,110.203336 44.1523308,111.069661 44.6583333,112.189 L43.0943333,113.132 C42.7723317,112.303996 42.28167,111.640836 41.6223333,111.1425 C40.9629967,110.644164 40.135005,110.395 39.1383333,110.395 C38.4483299,110.395 37.8311694,110.525332 37.2868333,110.786 C36.7424973,111.046668 36.2825019,111.418498 35.9068333,111.9015 C35.5311648,112.384502 35.2436677,112.959497 35.0443333,113.6265 C34.844999,114.293503 34.7453333,115.040996 34.7453333,115.869 L34.7453333,118.261 C34.7453333,119.917008 35.1286628,121.212662 35.8953333,122.148 C36.6620038,123.083338 37.742993,123.551 39.1383333,123.551 C40.1656718,123.551 41.0243299,123.286503 41.7143333,122.7575 C42.4043368,122.228497 42.9103317,121.527004 43.2323333,120.653 L44.7733333,121.619 C44.2673308,122.753672 43.5390048,123.64683 42.5883333,124.2985 C41.6376619,124.95017 40.4876734,125.276 39.1383333,125.276 Z M58.8685,117.732 L50.7495,117.732 L50.7495,125 L48.8175,125 L48.8175,108.946 L50.7495,108.946 L50.7495,116.03 L58.8685,116.03 L58.8685,108.946 L60.8005,108.946 L60.8005,125 L58.8685,125 L58.8685,117.732 Z M65.3736667,125 L65.3736667,123.39 L67.6276667,123.39 L67.6276667,110.556 L65.3736667,110.556 L65.3736667,108.946 L71.8136667,108.946 L71.8136667,110.556 L69.5596667,110.556 L69.5596667,123.39 L71.8136667,123.39 L71.8136667,125 L65.3736667,125 Z M81.6308334,110.648 L81.6308334,125 L79.6988334,125 L79.6988334,110.648 L74.5928334,110.648 L74.5928334,108.946 L86.7368334,108.946 L86.7368334,110.648 L81.6308334,110.648 Z M90.436,125 L90.436,108.946 L100.234,108.946 L100.234,110.648 L92.368,110.648 L92.368,116.03 L99.774,116.03 L99.774,117.732 L92.368,117.732 L92.368,123.298 L100.234,123.298 L100.234,125 L90.436,125 Z M109.108167,117.111 L106.831167,119.641 L106.831167,125 L104.899167,125 L104.899167,108.946 L106.831167,108.946 L106.831167,117.479 L106.900167,117.479 L109.200167,114.696 L114.053167,108.946 L116.422167,108.946 L110.442167,115.823 L116.836167,125 L114.444167,125 L109.108167,117.111 Z M125.480333,110.648 L125.480333,125 L123.548333,125 L123.548333,110.648 L118.442333,110.648 L118.442333,108.946 L130.586333,108.946 L130.586333,110.648 L125.480333,110.648 Z" id="Architekt"></path>
            </g>
        </g>
    </g>
</svg>